# icosahedron.obj

g icosahedron

v 0.000000 -0.525731 0.850651
v 0.850651 0.000000 0.525731
v 0.850651 0.000000 -0.525731
v -0.850651 0.000000 -0.525731
v -0.850651 0.000000 0.525731
v -0.525731 0.850651 0.000000
v 0.525731 0.850651 0.000000
v 0.525731 -0.850651 0.000000
v -0.525731 -0.850651 0.000000
v 0.000000 -0.525731 -0.850651
v 0.000000 0.525731 -0.850651
v 0.000000 0.525731 0.850651

vn 0.934172 0.356822 0.000000
vn 0.934172 -0.356822 0.000000
vn -0.934172 0.356822 0.000000
vn -0.934172 -0.356822 0.000000
vn 0.000000 0.934172 0.356822
vn 0.000000 0.934172 -0.356822
vn 0.356822 0.000000 -0.934172
vn -0.356822 0.000000 -0.934172
vn 0.000000 -0.934172 -0.356822
vn 0.000000 -0.934172 0.356822
vn 0.356822 0.000000 0.934172
vn -0.356822 0.000000 0.934172
vn 0.577350 0.577350 -0.577350
vn 0.577350 0.577350 0.577350
vn -0.577350 0.577350 -0.577350
vn -0.577350 0.577350 0.577350
vn 0.577350 -0.577350 -0.577350
vn 0.577350 -0.577350 0.577350
vn -0.577350 -0.577350 -0.577350
vn -0.577350 -0.577350 0.577350

vt 0.000000 0.000000
vt 0.250000 0.000000
vt 0.500000 0.000000
vt 0.750000 0.000000
vt 1.000000 0.000000
vt 0.125000 0.250000
vt 0.375000 0.250000
vt 0.625000 0.250000
vt 0.875000 0.250000
vt 0.125000 0.500000
vt 0.375000 0.500000
vt 0.625000 0.500000
vt 0.875000 0.500000
vt 0.250000 0.750000
vt 0.500000 0.750000
vt 0.750000 0.750000
vt 0.500000 1.000000

f 2/1/1 3/2/1 7/3/1
f 2/2/2 8/3/2 3/4/2
f 4/5/3 5/6/3 6/7/3
f 5/6/4 4/7/4 9/8/4
f 7/3/5 6/7/5 12/9/5
f 6/7/6 7/3/6 11/8/6
f 10/10/7 11/11/7 3/12/7
f 11/11/8 10/10/8 4/13/8
f 8/3/9 9/8/9 10/10/9
f 9/8/10 8/3/10 1/14/10
f 12/9/11 1/14/11 2/15/11
f 1/14/12 12/9/12 5/16/12
f 7/3/13 3/2/13 11/11/13
f 2/1/14 7/3/14 12/9/14
f 4/5/15 6/7/15 11/11/15
f 6/7/16 5/6/16 12/9/16
f 3/2/17 8/3/17 10/10/17
f 8/3/18 2/1/18 1/14/18
f 4/5/19 10/10/19 9/8/19
f 5/6/20 9/8/20 1/14/20